<?xml version="1.0" encoding="utf-8"?>
<!-- Generator: Adobe Illustrator 25.0.1, SVG Export Plug-In . SVG Version: 6.00 Build 0)  -->
<svg version="1.1" id="Layer_1" xmlns="http://www.w3.org/2000/svg" xmlns:xlink="http://www.w3.org/1999/xlink" x="0px" y="0px"
	 viewBox="0 0 100 100" style="enable-background:new 0 0 100 100;" xml:space="preserve">
<style type="text/css">
	.st0{fill:#DCC3D9;}
</style>
<g>
	<path class="st0" d="M84.1,25.5c-2.1-3-5-5.3-8.3-6.8c-3.1-1.3-6.7-1.6-10.1-1c-3.3,0.5-6.3,1.8-8.9,3.8c-1.3,1-2.5,2-3.5,3.3
		L49.7,29c-1.4,1.6-3.8,1.9-5.4,0.5c-0.1-0.1-0.4-0.3-0.5-0.5l-0.3-0.4c-0.6-0.8-0.8-1-1.3-1.4c-0.5-0.4-0.8-0.8-1.1-1.3
		c-0.8-0.8-1.6-1.5-2.5-2.1c-0.9-0.6-1.9-1.3-2.8-1.8C35,21.6,34,21.2,33,20.8c-3.8-1.4-8.1-1.3-11.8,0.3c-3.7,1.6-6.5,4.7-7.9,8.3
		c-1.9,3.9-2.5,8.3-2.1,12.6c0.6,4.5,2.3,8.8,4.8,12.7c2.6,4.2,5.7,8.2,9.1,11.7c7.2,7.6,14.3,15.2,21.1,23.3
		c-8.8-5.9-17.2-12.1-25.6-18.6c-4.3-3.5-8.2-7.4-11.5-11.8c-1.8-2.3-3.3-4.8-4.5-7.4c-1.3-2.8-2.3-5.7-2.8-8.6
		c-1-6-0.3-12.3,2.3-18c1.3-2.9,3-5.7,5.2-8.1c2.3-2.4,5.2-4.3,8.2-5.5c3-1.1,6.3-1.8,9.4-1.6c3.3,0,6.4,0.8,9.4,2
		c1.4,0.6,2.8,1.3,4.2,2.1c1.3,0.8,2.5,1.8,3.7,2.6c1.1,0.9,2.1,1.9,3,3c0.3-0.3,0.5-0.5,0.8-0.6c1.6-1.5,3.4-2.8,5.3-3.8
		c5.7-3.1,12.2-3.9,18.5-2.1c2,0.6,3.9,1.5,5.5,2.6c1.6,1.1,3,2.6,4.3,4.3C82.5,22,83.5,23.7,84.1,25.5z"/>
	<path class="st0" d="M75.2,50.8c3.7,0.3,6.9-4.5,7.2-10.7c0.3-6.2-2.4-11.2-6.2-11.5c-3.8-0.3-6.9,4.5-7.2,10.7
		S71.5,50.7,75.2,50.8z"/>
	<path class="st0" d="M61.7,53.9c3.1-1.8,3.4-7.7,0.4-13s-7.9-8.3-11.2-6.4s-3.5,7.7-0.4,13S58.5,55.7,61.7,53.9z"/>
	<path class="st0" d="M93.7,42.2c-3.7-0.6-7.4,3.8-8.3,9.8c-0.9,6,1.3,11.5,4.8,12.2c3.5,0.8,7.4-3.8,8.3-9.8
		C99.3,48.4,97.3,42.9,93.7,42.2z"/>
	<path class="st0" d="M74.9,57.6c-3.7-3.4-8.8-2.3-10.7,2.5c-2.1,5.3-7.9,15.2-9.9,20.5c-1.9,4.8,2.8,9.7,7.7,8.6l27.9-6.4
		c4.8-1.1,6.8-7.7,3-11.1C88.6,67.9,79.1,61.5,74.9,57.6z"/>
	<path class="st0" d="M54.1,72.4c3-2.1,2.5-8.1-1-13s-8.8-7.3-11.8-5c-3,2.3-2.5,8.1,1,13S51.1,74.6,54.1,72.4z"/>
</g>
</svg>
