<svg id="Layer_1" data-name="Layer 1" xmlns="http://www.w3.org/2000/svg" viewBox="0 0 348 100"><defs><style>.cls-1{fill:#dcc3d9;}</style></defs><path class="cls-1" d="M77.05,28.32a16.3,16.3,0,0,0-6.63-5.41,14.8,14.8,0,0,0-8-.79,15.61,15.61,0,0,0-7.1,3,17.79,17.79,0,0,0-2.82,2.6l-2.82,3.37a3.07,3.07,0,0,1-4.32.39,3.41,3.41,0,0,1-.38-.38l-.22-.26c-.47-.57-.64-.77-1-1.13s-.61-.64-.92-1a15.8,15.8,0,0,0-2-1.68,19.75,19.75,0,0,0-2.22-1.38,15.14,15.14,0,0,0-2.3-1,13.13,13.13,0,0,0-9.35.2,12.06,12.06,0,0,0-6.31,6.61,18.94,18.94,0,0,0-1.66,10,25.17,25.17,0,0,0,3.8,10.1,60.33,60.33,0,0,0,7.2,9.35c5.72,6,11.42,12.08,16.77,18.54-7-4.65-13.71-9.6-20.32-14.79a54,54,0,0,1-9.14-9.4,35.16,35.16,0,0,1-3.56-5.86,26.79,26.79,0,0,1-2.18-6.84,25.22,25.22,0,0,1,1.82-14.32,21.82,21.82,0,0,1,4.1-6.35,18,18,0,0,1,6.54-4.42,20.37,20.37,0,0,1,7.55-1.34,19.64,19.64,0,0,1,7.45,1.57,23.1,23.1,0,0,1,3.28,1.7,26,26,0,0,1,2.92,2.14,22.86,22.86,0,0,1,2.42,2.4c.18-.17.37-.35.57-.52a23,23,0,0,1,4.16-3,19.46,19.46,0,0,1,14.66-1.7,14.76,14.76,0,0,1,4.43,2.13,15,15,0,0,1,3.38,3.36A17.2,17.2,0,0,1,77.05,28.32Z"/><path class="cls-1" d="M69.94,48.42c2.92.17,5.49-3.64,5.73-8.51S73.73,31,70.81,30.79s-5.49,3.63-5.73,8.5S67,48.25,69.94,48.42Z"/><path class="cls-1" d="M59.28,50.89c2.55-1.44,2.71-6.07.35-10.33S53.3,34,50.75,35.43,48,41.5,50.4,45.77,56.73,52.33,59.28,50.89Z"/><path class="cls-1" d="M84.64,41.57c-2.89-.51-5.86,3-6.63,7.75S79,58.43,81.85,59s5.86-3,6.63-7.75S87.53,42.09,84.64,41.57Z"/><path class="cls-1" d="M69.76,53.8c-2.93-2.73-7-1.75-8.5,2C59.57,60,55,67.9,53.35,72.14c-1.46,3.79,2.25,7.71,6.06,6.82l22.21-5.14c3.81-.88,5.45-6.07,2.44-8.79C80.69,62,73.09,56.9,69.76,53.8Z"/><path class="cls-1" d="M53.21,65.58c2.37-1.74,2-6.36-.78-10.33s-7-5.78-9.36-4-2,6.36.78,10.33S50.84,67.32,53.21,65.58Z"/><path class="cls-1" d="M113.57,67.2a29.5,29.5,0,0,0,.67-6.59V35.27a29.34,29.34,0,0,0-.67-6.58,8,8,0,0,0-1.77-4h6.32a12.55,12.55,0,0,0,2.09-.17l1.22-.23a18.8,18.8,0,0,1,3.77-.47,20,20,0,0,1,8.47,1.74,13.75,13.75,0,0,1,6,5.22,15.62,15.62,0,0,1,2.21,8.53A14.94,14.94,0,0,1,140,46.87a13.65,13.65,0,0,1-11.92,7,12.49,12.49,0,0,1-6-1.39,7.57,7.57,0,0,1-3.42-3.25V60.61a29.5,29.5,0,0,0,.67,6.59,8,8,0,0,0,1.77,4H111.8A8,8,0,0,0,113.57,67.2ZM120,48.09a8.44,8.44,0,0,0,3.54,3.5A9.93,9.93,0,0,0,128,52.67a7.25,7.25,0,0,0,4.53-1.51,9.64,9.64,0,0,0,3-4.23,16.78,16.78,0,0,0,1.08-6.21c0-.62-.08-1.66-.24-3.13-.62-4.53-2.07-7.75-4.38-9.69a11.45,11.45,0,0,0-7.51-2.9,5,5,0,0,0-3.91,1.48,7.25,7.25,0,0,0-1.68,3.6,28.9,28.9,0,0,0-.38,5.13v6.67A12.41,12.41,0,0,0,120,48.09Z"/><path class="cls-1" d="M145.53,67.2a30.1,30.1,0,0,0,.67-6.59V35.27a29.94,29.94,0,0,0-.67-6.58,8,8,0,0,0-1.77-4H153a8.13,8.13,0,0,0-1.77,4,30,30,0,0,0-.66,6.58V60.61a30.13,30.13,0,0,0,.66,6.59,8.13,8.13,0,0,0,1.77,4h-9.22A8,8,0,0,0,145.53,67.2Z"/><path class="cls-1" d="M164,69.4a18.54,18.54,0,0,1-6.84-8.18,31.38,31.38,0,0,1-2.55-13.31,31,31,0,0,1,2.55-13.25A18.59,18.59,0,0,1,164,26.54a17.75,17.75,0,0,1,18.82,0,18.76,18.76,0,0,1,6.91,8.15,30.71,30.71,0,0,1,2.58,13.22,30.86,30.86,0,0,1-2.58,13.28,19,19,0,0,1-6.91,8.18,17.66,17.66,0,0,1-18.82,0Zm-1.21-8.15a16.92,16.92,0,0,0,5.74,7.17,12.59,12.59,0,0,0,6.9,2.11,10.65,10.65,0,0,0,8.55-4.2q3.45-4.21,3.46-13.84c0-1.43-.06-3-.18-4.58A37.7,37.7,0,0,0,184.1,34.6a16.82,16.82,0,0,0-5.8-7.1,12.8,12.8,0,0,0-6.93-2.09,10.54,10.54,0,0,0-8.47,4.17q-3.42,4.19-3.42,13.75c0,1.43.06,3,.17,4.58Q160.36,56.21,162.79,61.25Z"/><path class="cls-1" d="M197.44,28.69a8,8,0,0,0-1.77-4h9.22a8.13,8.13,0,0,0-1.77,4,30,30,0,0,0-.66,6.58V52.49a77.23,77.23,0,0,1-.52,10,11.83,11.83,0,0,1-2.64,6.18q-2.13,2.46-6.7,2.46V70a4,4,0,0,0,3.77-2.55,17.2,17.2,0,0,0,1.48-6.12q.26-3.57.26-9.19V35.27A29.94,29.94,0,0,0,197.44,28.69Z"/><path class="cls-1" d="M208.4,67.2a29.5,29.5,0,0,0,.67-6.59V35.27a29.34,29.34,0,0,0-.67-6.58,8,8,0,0,0-1.77-4h9.23a8,8,0,0,0-1.77,4,29.34,29.34,0,0,0-.67,6.58V60.61a29.5,29.5,0,0,0,.67,6.59,8,8,0,0,0,1.77,4h-9.23A8,8,0,0,0,208.4,67.2Z"/><path class="cls-1" d="M234.39,67.2a30.13,30.13,0,0,0,.66-6.59V35.27a36.72,36.72,0,0,0-.26-5,6.08,6.08,0,0,0-1.33-3.16,4.06,4.06,0,0,0-3.28-1.28H230a16.18,16.18,0,0,0-7,1.22,15.71,15.71,0,0,0-3.68,2.32c-.8.74-1.29,1.2-1.48,1.39l1.39-4.93.35-1.16h35.32l.35,1.16,1.39,4.93q-.28-.29-1.8-1.68a11.81,11.81,0,0,0-4.17-2.32,18.67,18.67,0,0,0-6.15-.93h-.23A4,4,0,0,0,241,27.15a6,6,0,0,0-1.33,3.16,36.47,36.47,0,0,0-.27,5V60.61a30.1,30.1,0,0,0,.67,6.59,8,8,0,0,0,1.77,4h-9.22A8.13,8.13,0,0,0,234.39,67.2Z"/><path class="cls-1" d="M266.37,69.4a18.54,18.54,0,0,1-6.84-8.18A31.38,31.38,0,0,1,257,47.91a31,31,0,0,1,2.55-13.25,18.59,18.59,0,0,1,6.84-8.12,17.77,17.77,0,0,1,18.83,0,18.68,18.68,0,0,1,6.9,8.15,30.71,30.71,0,0,1,2.58,13.22,30.86,30.86,0,0,1-2.58,13.28,18.88,18.88,0,0,1-6.9,8.18,17.68,17.68,0,0,1-18.83,0Zm-1.21-8.15a16.92,16.92,0,0,0,5.74,7.17,12.59,12.59,0,0,0,6.9,2.11,10.68,10.68,0,0,0,8.56-4.2q3.45-4.21,3.45-13.84c0-1.43-.06-3-.18-4.58a37.7,37.7,0,0,0-3.16-13.31,16.82,16.82,0,0,0-5.8-7.1,12.8,12.8,0,0,0-6.93-2.09,10.55,10.55,0,0,0-8.47,4.17q-3.42,4.19-3.42,13.75c0,1.43.06,3,.17,4.58Q262.73,56.21,265.16,61.25Z"/><path class="cls-1" d="M301.52,69.84a11.25,11.25,0,0,1-5.16-6.44l4.7-6a17.14,17.14,0,0,0,1.36,7,11.22,11.22,0,0,0,3.83,4.79,9.67,9.67,0,0,0,5.65,1.71,10,10,0,0,0,5-1.37,10.35,10.35,0,0,0,3.89-3.88,11.38,11.38,0,0,0,1.48-5.83,8.76,8.76,0,0,0-1.45-5.1,12.35,12.35,0,0,0-3.63-3.46,58.4,58.4,0,0,0-5.89-3.1,59.58,59.58,0,0,1-6.61-3.59,14.59,14.59,0,0,1-4.23-4.3,11.83,11.83,0,0,1-1.74-6.61,8.33,8.33,0,0,1,1.74-5.22A10.85,10.85,0,0,1,305.15,25a16.77,16.77,0,0,1,6.35-1.19,15,15,0,0,1,4.44.58,33.08,33.08,0,0,1,4,1.63,22.48,22.48,0,0,0,2.58,1.13,6.87,6.87,0,0,0,2.29.37l-4.06,5.11a8.75,8.75,0,0,0-2.76-5.6A9,9,0,0,0,311.79,25a10.4,10.4,0,0,0-4.12.84,8,8,0,0,0-3.22,2.44A5.81,5.81,0,0,0,303.2,32a9.37,9.37,0,0,0,1.45,5.34,11.6,11.6,0,0,0,3.6,3.45,57.93,57.93,0,0,0,5.86,3,59.11,59.11,0,0,1,6.76,3.59,14,14,0,0,1,4.29,4.5,13.65,13.65,0,0,1,1.77,7.28,11.44,11.44,0,0,1-2.15,6.9A13.62,13.62,0,0,1,319,70.53a19.62,19.62,0,0,1-8,1.57A18.62,18.62,0,0,1,301.52,69.84Z"/></svg>